<?xml version="1.0" encoding="UTF-8"?>
<!-- Generator: Adobe Illustrator 23.1.0, SVG Export Plug-In . SVG Version: 6.00 Build 0)  -->
<svg xmlns="http://www.w3.org/2000/svg" xmlns:xlink="http://www.w3.org/1999/xlink" id="Layer_1" x="0px" y="0px" viewBox="0 0 567.45 115.39" style="enable-background:new 0 0 567.45 115.39;" xml:space="preserve">
<g>
	<path d="M137.12,50.4c1.45-0.65,2.65-1.96,2.65-3.88c0-2.5-2.14-3.84-4.72-4.14V42.3c1.45-0.29,3.67-1.34,3.67-3.56   c0-1.34-0.54-2.29-1.49-2.87c-0.94-0.62-2.14-0.83-3.92-0.83h-8.2v0.8c2.21,0.18,2.43,0.36,2.43,3.01v8.53   c0,2.65-0.22,2.83-2.58,3.01v0.83h7.22C134,51.23,135.74,51.01,137.12,50.4z M130.37,37.01c0-0.87,0.07-0.94,1.85-0.94   c1.78,0,3.45,0.87,3.45,3.01c0,2.21-1.56,3.01-3.3,3.01h-2V37.01z M130.37,47.49v-4.46h1.85c2.32,0,4.28,1.05,4.28,3.63   c0,2.47-1.56,3.56-3.63,3.56C131.13,50.21,130.37,49.85,130.37,47.49z"></path>
	<path d="M148.76,50.4l-0.83-0.07c-1.05-0.07-1.38-0.43-0.94-1.67c0.36-1.09,0.98-2.79,1.23-3.38h5.04l1.23,2.94   c0.72,1.7,0.4,2-0.62,2.1l-0.69,0.07v0.83h7.33V50.4c-1.6-0.11-2.29-0.25-3.16-2.4l-5.41-13.39l-0.91,0.22l-5.37,12.74   c-1.05,2.5-1.67,2.65-3.26,2.83v0.83h6.35V50.4z M150.65,38.53h0.07l2.11,5.51h-4.21L150.65,38.53z"></path>
	<path d="M167.67,49.02c-0.11-0.76-0.22-2.03-0.22-4.64v-5.3h0.04l11.07,12.34h1.16V41.9c0-2.61,0.11-3.88,0.22-4.68   c0.14-0.87,0.91-1.27,2.43-1.34v-0.83h-6.93v0.83c1.81,0.11,2.61,0.47,2.76,1.34c0.11,0.8,0.22,2.07,0.22,4.68v5.01h-0.07   l-10.78-11.86h-4.46v0.83c2.47,0.18,3.05,0.73,3.05,3.63v4.86c0,2.61-0.11,3.88-0.22,4.64c-0.14,0.87-0.91,1.31-2.43,1.38v0.83   h6.89V50.4C168.57,50.29,167.78,49.89,167.67,49.02z"></path>
	<path d="M200.28,50.98c0.4-0.94,0.94-3.16,1.34-4.54l-0.91-0.15c-1.34,2.83-2.72,4.28-5.41,4.28c-3.88,0-6.42-3.12-6.42-7.76   c0-4.06,2.18-7.11,6.17-7.11c2.5,0,4.32,0.91,5.08,3.99l0.91-0.11c-0.18-1.63-0.29-2.94-0.47-4.32c-0.91-0.22-2.68-0.65-5.12-0.65   c-5.51,0-9.83,3.52-9.83,8.71c0,4.14,2.98,8.34,9.51,8.34C197.13,51.66,199.52,51.16,200.28,50.98z"></path>
	<path d="M213.49,34.61c-3.85,0-8.63,2.79-8.63,8.89c0,3.92,3.05,8.16,8.67,8.16c4.25,0,8.56-3.01,8.56-8.71   C222.09,38.28,218.71,34.61,213.49,34.61z M213.82,50.58c-3.59,0-5.69-3.23-5.69-7.95c0-4.43,2.1-6.93,5.04-6.93   c3.63,0,5.66,3.85,5.66,7.98C218.82,48.76,216.61,50.58,213.82,50.58z"></path>
	<path d="M249.66,50.98c0.4-0.94,0.94-3.16,1.34-4.54l-0.91-0.15c-1.34,2.83-2.72,4.28-5.41,4.28c-3.88,0-6.42-3.12-6.42-7.76   c0-4.06,2.18-7.11,6.17-7.11c2.5,0,4.32,0.91,5.08,3.99l0.91-0.11c-0.18-1.63-0.29-2.94-0.47-4.32c-0.91-0.22-2.68-0.65-5.11-0.65   c-5.52,0-9.83,3.52-9.83,8.71c0,4.14,2.97,8.34,9.51,8.34C246.5,51.66,248.9,51.16,249.66,50.98z"></path>
	<path d="M268.53,46.98l-0.94-0.11c-0.36,1.23-0.87,2.03-1.31,2.47c-0.58,0.58-1.74,0.8-3.26,0.8c-1.63,0-2.4-0.04-2.9-0.29   c-0.51-0.25-0.69-1.05-0.69-2.47v-3.96h2.87c2.29,0,2.36,0.11,2.65,2.1h0.91V40.2h-0.91c-0.29,1.85-0.36,2-2.65,2h-2.87v-5.15   c0-0.91,0.04-0.91,1.05-0.91h2.03c1.74,0,2.54,0.36,2.9,0.73c0.36,0.36,0.65,1.05,0.91,2.32l0.91-0.07   c-0.15-1.67-0.25-3.37-0.29-4.06h-12.81v0.83c2.29,0.15,2.47,0.33,2.47,3.01v8.46c0,2.68-0.18,2.87-2.72,3.05v0.83h13.71   C267.8,50.54,268.35,47.93,268.53,46.98z"></path>
	<path d="M274.19,49.02c-0.15,0.87-0.91,1.31-2.43,1.38v0.83h6.89V50.4c-1.82-0.11-2.61-0.51-2.72-1.38   c-0.11-0.76-0.22-2.03-0.22-4.64v-5.3h0.03l11.07,12.34h1.16V41.9c0-2.61,0.11-3.88,0.22-4.68c0.14-0.87,0.91-1.27,2.43-1.34v-0.83   h-6.93v0.83c1.81,0.11,2.61,0.47,2.76,1.34c0.11,0.8,0.22,2.07,0.22,4.68v5.01h-0.07l-10.77-11.86h-4.46v0.83   c2.47,0.18,3.05,0.73,3.05,3.63v4.86C274.41,46.98,274.3,48.25,274.19,49.02z"></path>
	<path d="M297.26,50.4v0.83h8.38V50.4c-2.61-0.18-2.83-0.36-2.83-3.01V36.14h1.63c1.56,0,2.43,0.22,2.9,0.69   c0.4,0.4,0.65,1.05,0.95,2.54l0.91-0.07c-0.14-1.56-0.29-3.85-0.33-4.86h-0.47c-0.4,0.47-0.54,0.62-1.23,0.62h-11.25   c-0.69,0-0.98-0.07-1.38-0.62h-0.47c-0.04,1.27-0.22,3.05-0.33,4.93h0.87c0.33-1.38,0.65-2.03,0.98-2.4   c0.4-0.43,1.13-0.83,3.27-0.83h1.12v11.25C299.99,50.03,299.77,50.21,297.26,50.4z"></path>
	<path d="M321.02,50.4c-2.32-0.18-2.54-0.36-2.54-3.01v-3.12h1.09c1.02,0,1.27,0.11,1.78,0.98c0.62,1.01,1.63,2.79,2.5,3.96   c1.02,1.34,2.32,2.29,5.33,2.25h0.55l0.11-0.72c-0.8-0.25-1.45-0.65-1.89-1.09c-0.62-0.58-1.27-1.38-2.14-2.61   c-0.76-1.09-1.96-2.83-2.36-3.59c2.03-0.73,3.52-2,3.52-4.21c0-1.6-0.76-2.72-1.78-3.34c-1.05-0.62-2.47-0.83-4.13-0.83h-7.87v0.83   c2.25,0.18,2.47,0.33,2.47,3.01v8.49c0,2.65-0.22,2.83-2.58,3.01v0.83h7.94V50.4z M318.48,37.12c0-1.02,0.07-1.05,1.71-1.05   c2,0,3.74,1.09,3.74,3.48c0,1.13-0.4,2.5-1.34,3.12c-0.76,0.47-1.67,0.58-2.43,0.58h-1.67V37.12z"></path>
	<path d="M343.44,50.32l-0.69,0.07v0.83h7.33V50.4c-1.6-0.11-2.29-0.25-3.16-2.4l-5.41-13.39l-0.91,0.22l-5.37,12.74   c-1.05,2.5-1.67,2.65-3.26,2.83v0.83h6.35V50.4l-0.84-0.07c-1.05-0.07-1.38-0.43-0.94-1.67c0.36-1.09,0.98-2.79,1.23-3.38h5.04   l1.23,2.94C344.78,49.92,344.46,50.21,343.44,50.32z M338.18,44.05l2.03-5.51h0.07l2.1,5.51H338.18z"></path>
	<path d="M367.24,46.91l-0.94-0.11c-0.36,1.16-0.8,2-1.23,2.43c-0.58,0.65-1.74,0.91-3.16,0.91c-1.34,0-2.1-0.04-2.61-0.29   c-0.51-0.25-0.69-0.98-0.69-2.4v-8.56c0-2.72,0.22-2.87,2.72-3.01v-0.83h-8.09v0.83c2.32,0.15,2.54,0.29,2.54,3.01v8.46   c0,2.72-0.18,2.9-2.72,3.05v0.83h13.24C366.51,50.54,367.06,47.75,367.24,46.91z"></path>
	<path d="M133.09,65.06h-7.95v0.84c2.18,0.18,2.4,0.33,2.4,3.01v8.49c0,2.65-0.22,2.83-2.61,3.01v0.83h7.11   c5.8,0,10.67-2.65,10.67-8.71c0-2.29-0.94-4.17-2.18-5.3C138.79,65.64,136.17,65.06,133.09,65.06z M132.95,80.16   c-2.29,0-2.58-0.54-2.58-2.61v-9.98c0-0.69,0.07-1.05,0.25-1.2c0.18-0.14,0.91-0.29,1.81-0.29c4.39,0,7,2.07,7,7.15   C139.44,77.4,137.41,80.16,132.95,80.16z"></path>
	<path d="M158.82,79.36c-0.58,0.58-1.74,0.8-3.26,0.8c-1.63,0-2.4-0.04-2.9-0.29c-0.51-0.25-0.69-1.05-0.69-2.47v-3.96h2.87   c2.29,0,2.36,0.11,2.65,2.11h0.91v-5.33h-0.91c-0.29,1.85-0.36,1.99-2.65,1.99h-2.87v-5.15c0-0.91,0.04-0.91,1.05-0.91h2.03   c1.74,0,2.54,0.36,2.9,0.72c0.36,0.36,0.65,1.05,0.91,2.32l0.91-0.07c-0.15-1.67-0.25-3.37-0.29-4.06h-12.81v0.84   c2.28,0.14,2.47,0.33,2.47,3.01v8.45c0,2.69-0.18,2.87-2.72,3.05v0.83h13.71c0.22-0.69,0.76-3.3,0.94-4.25l-0.94-0.11   C159.76,78.12,159.25,78.92,158.82,79.36z"></path>
	<path d="M185.48,79.25c-0.58,0.66-1.74,0.91-3.16,0.91c-1.34,0-2.1-0.04-2.61-0.29c-0.51-0.25-0.69-0.98-0.69-2.39v-8.56   c0-2.72,0.22-2.87,2.72-3.01v-0.84h-8.09v0.84c2.32,0.14,2.54,0.29,2.54,3.01v8.45c0,2.72-0.18,2.9-2.72,3.05v0.83h13.24   c0.22-0.69,0.76-3.48,0.94-4.32l-0.94-0.11C186.35,77.98,185.92,78.81,185.48,79.25z"></path>
	<path d="M205.04,78.02l-5.41-13.39l-0.91,0.22l-5.37,12.74c-1.05,2.5-1.67,2.65-3.26,2.83v0.83h6.35v-0.83l-0.83-0.07   c-1.05-0.08-1.38-0.44-0.94-1.67c0.36-1.09,0.98-2.79,1.23-3.38h5.04l1.23,2.94c0.73,1.71,0.4,2-0.62,2.11l-0.69,0.07v0.83h7.33   v-0.83C206.6,80.3,205.91,80.16,205.04,78.02z M196.29,74.06l2.03-5.51h0.07l2.11,5.51H196.29z"></path>
	<path d="M233.12,77.03c-0.76-1.09-1.96-2.83-2.36-3.59c2.03-0.73,3.52-2,3.52-4.21c0-1.6-0.76-2.72-1.78-3.34   c-1.05-0.62-2.47-0.84-4.14-0.84h-7.87v0.84c2.25,0.18,2.47,0.33,2.47,3.01v8.49c0,2.65-0.22,2.83-2.58,3.01v0.83h7.95v-0.83   c-2.32-0.18-2.54-0.36-2.54-3.01v-3.12h1.09c1.02,0,1.27,0.11,1.78,0.98c0.62,1.02,1.63,2.79,2.5,3.96   c1.02,1.34,2.32,2.28,5.33,2.25h0.54l0.11-0.73c-0.8-0.25-1.45-0.65-1.89-1.09C234.64,79.07,233.99,78.27,233.12,77.03z    M229.89,72.68c-0.76,0.47-1.67,0.58-2.43,0.58h-1.67v-6.13c0-1.02,0.07-1.05,1.7-1.05c2,0,3.74,1.09,3.74,3.48   C231.23,70.69,230.83,72.06,229.89,72.68z"></path>
	<path d="M251.77,79.36c-0.58,0.58-1.74,0.8-3.27,0.8c-1.63,0-2.39-0.04-2.9-0.29c-0.51-0.25-0.69-1.05-0.69-2.47v-3.96h2.87   c2.29,0,2.36,0.11,2.65,2.11h0.91v-5.33h-0.91c-0.29,1.85-0.36,1.99-2.65,1.99h-2.87v-5.15c0-0.91,0.04-0.91,1.05-0.91h2.03   c1.74,0,2.54,0.36,2.9,0.72c0.36,0.36,0.65,1.05,0.91,2.32l0.91-0.07c-0.14-1.67-0.25-3.37-0.29-4.06h-12.81v0.84   c2.29,0.14,2.46,0.33,2.46,3.01v8.45c0,2.69-0.18,2.87-2.72,3.05v0.83h13.71c0.22-0.69,0.76-3.3,0.94-4.25l-0.94-0.11   C252.71,78.12,252.2,78.92,251.77,79.36z"></path>
	<path d="M265.66,65.06h-8.02v0.84c2.17,0.18,2.39,0.33,2.39,3.01v8.49c0,2.65-0.22,2.83-2.54,3.01v0.83h8.2v-0.83   c-2.61-0.18-2.83-0.36-2.83-3.01v-3.05l2.11,0.51c0.33,0,0.76,0,1.38-0.07c2.94-0.36,5.41-2.03,5.41-5.04   C271.76,66.44,269.26,65.06,265.66,65.06z M264.94,73.7c-0.76,0-1.52-0.18-2.07-0.36v-5.99c0-1.23,0.04-1.27,1.85-1.27   c2.32,0,3.92,1.12,3.92,3.66C268.64,73.05,266.35,73.7,264.94,73.7z"></path>
	<path d="M287.58,65.9c1.81,0.11,2.61,0.47,2.76,1.34c0.11,0.8,0.22,2.07,0.22,4.68v1.63c0,3.92-1.23,6.64-4.86,6.64   c-3.19,0-4.61-2.39-4.61-6.35v-4.9c0-2.68,0.22-2.86,2.5-3.04v-0.84h-7.91v0.84c2.4,0.18,2.58,0.36,2.58,3.04v5.62   c0,2.9,0.65,4.72,2,5.77c1.27,1.01,3.01,1.34,4.68,1.34c2.03,0,3.85-0.69,4.97-1.81c1.45-1.45,1.96-3.66,1.96-5.7v-2.25   c0-2.61,0.11-3.88,0.22-4.68c0.14-0.87,0.91-1.27,2.43-1.34v-0.84h-6.93V65.9z"></path>
	<path d="M288.34,57.63c-0.51-0.29-0.87-0.36-1.23,0.25l-4.21,5.69l0.62,0.36l5.33-4.61c0.65-0.54,0.69-0.98-0.04-1.42L288.34,57.63   z"></path>
	<path d="M307.89,72.39v-0.07c1.45-0.29,3.67-1.34,3.67-3.56c0-1.34-0.54-2.28-1.49-2.86c-0.94-0.62-2.14-0.84-3.92-0.84h-8.2v0.8   c2.21,0.18,2.43,0.36,2.43,3.01v8.53c0,2.65-0.22,2.83-2.57,3.01v0.83h7.22c1.82,0,3.56-0.22,4.93-0.83   c1.45-0.66,2.65-1.96,2.65-3.88C312.61,74.03,310.47,72.68,307.89,72.39z M303.21,67.02c0-0.87,0.07-0.94,1.85-0.94   c1.78,0,3.45,0.87,3.45,3.01c0,2.21-1.56,3.01-3.3,3.01h-2V67.02z M305.72,80.23c-1.74,0-2.5-0.36-2.5-2.72v-4.46h1.85   c2.32,0,4.28,1.05,4.28,3.63C309.34,79.14,307.78,80.23,305.72,80.23z"></path>
	<path d="M328.79,79.25c-0.58,0.66-1.74,0.91-3.16,0.91c-1.34,0-2.11-0.04-2.61-0.29c-0.51-0.25-0.69-0.98-0.69-2.39v-8.56   c0-2.72,0.22-2.87,2.72-3.01v-0.84h-8.09v0.84c2.32,0.14,2.54,0.29,2.54,3.01v8.45c0,2.72-0.18,2.9-2.72,3.05v0.83h13.24   c0.22-0.69,0.76-3.48,0.94-4.32l-0.94-0.11C329.66,77.98,329.23,78.81,328.79,79.25z"></path>
	<path d="M333.94,65.9c2.32,0.18,2.54,0.33,2.54,3.01v8.49c0,2.65-0.22,2.83-2.54,3.01v0.83h7.91v-0.83   c-2.32-0.18-2.54-0.36-2.54-3.01v-8.49c0-2.68,0.22-2.83,2.54-3.01v-0.84h-7.91V65.9z"></path>
	<path d="M355.53,80.59c-3.88,0-6.42-3.12-6.42-7.76c0-4.06,2.18-7.11,6.17-7.11c2.5,0,4.32,0.91,5.08,3.99l0.91-0.11   c-0.18-1.63-0.29-2.94-0.47-4.32c-0.91-0.22-2.69-0.65-5.12-0.65c-5.51,0-9.83,3.52-9.83,8.71c0,4.14,2.97,8.34,9.5,8.34   c2,0,4.39-0.51,5.15-0.69c0.4-0.94,0.94-3.16,1.34-4.54l-0.91-0.14C359.59,79.14,358.22,80.59,355.53,80.59z"></path>
	<path d="M379.26,78.02l-5.41-13.39l-0.91,0.22l-5.37,12.74c-1.05,2.5-1.67,2.65-3.27,2.83v0.83h6.35v-0.83l-0.83-0.07   c-1.05-0.08-1.38-0.44-0.94-1.67c0.36-1.09,0.98-2.79,1.23-3.38h5.04l1.23,2.94c0.73,1.71,0.4,2-0.62,2.11l-0.69,0.07v0.83h7.33   v-0.83C380.82,80.3,380.13,80.16,379.26,78.02z M370.52,74.06l2.03-5.51h0.07l2.1,5.51H370.52z"></path>
	<path d="M408.61,78.02l-5.4-13.39l-0.91,0.22l-5.37,12.74c-1.05,2.5-1.67,2.65-3.26,2.83v0.83h6.35v-0.83l-0.83-0.07   c-1.05-0.08-1.38-0.44-0.95-1.67c0.36-1.09,0.98-2.79,1.23-3.38h5.04l1.23,2.94c0.73,1.71,0.4,2-0.62,2.11l-0.69,0.07v0.83h7.33   v-0.83C410.17,80.3,409.48,80.16,408.61,78.02z M399.86,74.06l2.03-5.51h0.07l2.1,5.51H399.86z"></path>
	<path d="M427.62,77.03c-0.76-1.09-1.96-2.83-2.36-3.59c2.03-0.73,3.52-2,3.52-4.21c0-1.6-0.76-2.72-1.78-3.34   c-1.05-0.62-2.47-0.84-4.14-0.84h-7.87v0.84c2.25,0.18,2.47,0.33,2.47,3.01v8.49c0,2.65-0.22,2.83-2.58,3.01v0.83h7.94v-0.83   c-2.32-0.18-2.54-0.36-2.54-3.01v-3.12h1.09c1.02,0,1.27,0.11,1.78,0.98c0.62,1.02,1.63,2.79,2.5,3.96   c1.02,1.34,2.32,2.28,5.33,2.25h0.54l0.11-0.73c-0.8-0.25-1.45-0.65-1.89-1.09C429.14,79.07,428.49,78.27,427.62,77.03z    M424.39,72.68c-0.76,0.47-1.67,0.58-2.43,0.58h-1.67v-6.13c0-1.02,0.07-1.05,1.71-1.05c2,0,3.74,1.09,3.74,3.48   C425.73,70.69,425.33,72.06,424.39,72.68z"></path>
	<path d="M443.59,74.35c3.08,0.25,3.19,0.43,3.19,2.1v2.54c0,1.42-1.34,1.6-2.61,1.6c-4.9,0-6.82-3.92-6.82-7.73   c0-4.46,2.62-7.15,6.21-7.15c2.36,0,4.53,0.76,5.26,4.06l0.91-0.07c-0.22-2.14-0.33-3.59-0.44-4.43c-0.91-0.22-2.76-0.65-5.08-0.65   c-5.22,0-10.12,3.01-10.12,8.71c0,4.94,4.07,8.34,9.98,8.34c1.96,0,4.1-0.58,5.8-1.02c-0.18-0.55-0.25-1.34-0.25-2.25v-1.96   c0-1.78,0.11-1.85,1.63-2.1v-0.83h-7.66V74.35z"></path>
	<path d="M466.96,79.36c-0.58,0.58-1.74,0.8-3.26,0.8c-1.63,0-2.39-0.04-2.9-0.29c-0.51-0.25-0.69-1.05-0.69-2.47v-3.96h2.87   c2.28,0,2.36,0.11,2.65,2.11h0.91v-5.33h-0.91c-0.29,1.85-0.36,1.99-2.65,1.99h-2.87v-5.15c0-0.91,0.04-0.91,1.05-0.91h2.03   c1.74,0,2.54,0.36,2.9,0.72c0.36,0.36,0.65,1.05,0.91,2.32l0.91-0.07c-0.14-1.67-0.25-3.37-0.29-4.06H454.8v0.84   c2.28,0.14,2.47,0.33,2.47,3.01v8.45c0,2.69-0.18,2.87-2.72,3.05v0.83h13.71c0.22-0.69,0.76-3.3,0.95-4.25l-0.95-0.11   C467.9,78.12,467.39,78.92,466.96,79.36z"></path>
	<path d="M484.37,65.9c1.81,0.11,2.61,0.47,2.76,1.34c0.11,0.8,0.22,2.07,0.22,4.68v5.01h-0.07L476.5,65.06h-4.46v0.84   c2.47,0.18,3.05,0.72,3.05,3.63v4.86c0,2.61-0.11,3.88-0.22,4.65c-0.14,0.87-0.91,1.31-2.43,1.38v0.83h6.89v-0.83   c-1.81-0.11-2.61-0.51-2.72-1.38c-0.11-0.76-0.22-2.03-0.22-4.65v-5.3h0.04l11.07,12.34h1.16v-9.51c0-2.61,0.11-3.88,0.22-4.68   c0.15-0.87,0.91-1.27,2.43-1.34v-0.84h-6.93V65.9z"></path>
	<path d="M509.08,64.44c-0.4,0.47-0.54,0.62-1.23,0.62H496.6c-0.69,0-0.98-0.07-1.38-0.62h-0.47c-0.04,1.27-0.22,3.05-0.32,4.94   h0.87c0.33-1.38,0.66-2.03,0.98-2.39c0.4-0.44,1.13-0.83,3.26-0.83h1.13V77.4c0,2.65-0.22,2.83-2.72,3.01v0.83h8.38v-0.83   c-2.61-0.18-2.83-0.36-2.83-3.01V66.15h1.63c1.56,0,2.43,0.22,2.9,0.69c0.4,0.4,0.65,1.05,0.94,2.54l0.91-0.07   c-0.15-1.56-0.29-3.84-0.33-4.86H509.08z"></path>
	<path d="M513.69,65.9c2.32,0.18,2.54,0.33,2.54,3.01v8.49c0,2.65-0.22,2.83-2.54,3.01v0.83h7.91v-0.83   c-2.32-0.18-2.54-0.36-2.54-3.01v-8.49c0-2.68,0.22-2.83,2.54-3.01v-0.84h-7.91V65.9z"></path>
	<path d="M537.49,65.9c1.81,0.11,2.61,0.47,2.76,1.34c0.11,0.8,0.22,2.07,0.22,4.68v5.01h-0.08l-10.78-11.87h-4.46v0.84   c2.47,0.18,3.05,0.72,3.05,3.63v4.86c0,2.61-0.11,3.88-0.22,4.65c-0.15,0.87-0.91,1.31-2.43,1.38v0.83h6.89v-0.83   c-1.82-0.11-2.61-0.51-2.72-1.38c-0.11-0.76-0.22-2.03-0.22-4.65v-5.3h0.04l11.06,12.34h1.16v-9.51c0-2.61,0.11-3.88,0.22-4.68   c0.15-0.87,0.91-1.27,2.43-1.34v-0.84h-6.93V65.9z"></path>
	<path d="M560.82,78.02l-5.41-13.39l-0.91,0.22l-5.37,12.74c-1.05,2.5-1.67,2.65-3.27,2.83v0.83h6.35v-0.83l-0.84-0.07   c-1.05-0.08-1.38-0.44-0.94-1.67c0.36-1.09,0.98-2.79,1.23-3.38h5.04l1.23,2.94c0.73,1.71,0.4,2-0.62,2.11l-0.69,0.07v0.83h7.33   v-0.83C562.38,80.3,561.69,80.16,560.82,78.02z M552.07,74.06l2.03-5.51h0.07l2.1,5.51H552.07z"></path>
	<path d="M57.34,0.72C25.67,0.72,0,26.39,0,58.06c0,31.66,25.67,57.33,57.34,57.33c31.67,0,57.34-25.67,57.34-57.33   C114.67,26.39,89,0.72,57.34,0.72z M57.34,114.04c-30.92,0-55.99-25.07-55.99-55.99c0-30.92,25.07-55.99,55.99-55.99   c30.92,0,55.99,25.06,55.99,55.99C113.33,88.98,88.26,114.04,57.34,114.04z"></path>
	<path d="M57.34,3.71c-30.02,0-54.35,24.33-54.35,54.35c0,30.01,24.33,54.35,54.35,54.35c30.01,0,54.34-24.33,54.34-54.35   C111.68,28.04,87.35,3.71,57.34,3.71z M102.8,85.3c-0.4,0.66-0.73,0.75-1.43,0.75c-1.64,0-1.4-2.99-3.04-2.99   c-2.11,0-1.48,2.88-2.9,2.88c-1.54,0-1.08-1.87-2.87-1.87c-0.86,0-2.81,1.25-4.68,1.25c-1.02,0-1.48-0.47-1.48-1.72   c0-1.41-1.33-2.03-2.73-2.03c-1.36,0-4.3,0-5.77,0c-3.43,0-5.15-2.11-5.54-1.72c-1.02,1.01,1.63,2.96,4.37,4.21   c2.62,1.19,3.37,3.31,3.98,3.31c0.47,0,0.57-0.47,0.57-0.74c0-0.46-0.12-1.23-1.04-2.03c0-0.35,0.15-0.42,0.39-0.42   c2.65,0,2.18,3.54,6.47,3.54c1.61,0,3.2-0.81,3.9-0.81c2.18,0,1.72,4.48,4.14,4.48c0.7,0,0.85-0.37,0.85-1.23   c0-1.35-0.23-2.8,0.55-2.8c0.78,0,1.6,1.48,3.94,1.48c-1.19,1.66-2.38,3.33-3.8,4.78c-0.78,0.8-1.46,1.22-2.55,1.22   c-3.67,0-2.96-3.06-5.7-3.06c-1.39,0-2.58,0.23-3.2,0.86c-0.39,0.39,0.16,1.09,0.7,1.09c2.73,0,1.87,3.79,3.98,3.79   c1.48,0,2.03-1.18,2.03-0.48c0,0.78-0.62,2.69-3.12,2.69c-3.21,0-1.89-2.49-6.71-2.49c-1.72,0-3.51-1.64-3.51-3.35   c0-0.78,1.17,0.08,3.51,0.08c1.25,0,2.03-0.23,2.03-0.86s-0.92-0.88-2.03-0.88c-4.37,0-3.58-3.02-7.1-5.29   c-1.65-1.06-3.12-2.18-4.06-3.59c-0.84-1.26-1.35-2.39-1.48-3.74c-0.23-2.36-1.33-5.07-3.82-5.07c-0.78,0-0.78,0.78-0.78,2.26   c0,2.18-1.48,2.96-0.86,3.59c0.62,0.62,1.56-0.93,2.5-0.93c1.4,0,0.62,2.57,3.59,5.54c3.48,3.48,6.56,3.01,6.56,9.05   c0,1.15-0.47,2.18-1.25,2.18c-1.4,0-1.01-2.65-1.01-4.29c0-1.05-0.83-2.49-2.34-3.04c-0.29-0.1-0.93-0.31-0.93,0.31   c0,0.78,1.95,1.25,1.95,2.73c0,1.31-0.61,2.97-0.54,4.29c0.22,4.08,7.42,1.77,7.42,5.65c0,0.98,0.6,2.39,1.8,3.21   c-7.3,3.79-15.61,5.96-24.41,5.96c-3.8,0-7.64-0.36-11.27-1.21c0,0,2.35-1.36,2.35-4.64c0-3.08-0.67-7.91-0.67-11   c0-3.19,0.59-5.38,2.62-7.11c1.15-0.98,5.23-4.51,6.97-6.08c0.72-0.65,1.38-1.4,1.38-1.95c0-0.23-0.45-0.28-0.65-0.12   c-5.12,4.17-11.44,7.68-17.84,7.68c-3.82,0-9.27-1.17-9.27-4.99c0-2.03,1.8-2.65,1.8-4.44c0-0.78-0.65-1.29-1.43-1.29   c-0.96,0-2.03,0.08-2.03-0.82c0-0.78,0.7-0.96,1.63-0.96c2.81,0,2.89,1.03,4.22,1.03c0.31,0,0.51-0.31,0.48-0.6   c-0.09-0.8-1.26-1.27-2.16-1.34c-0.72-0.05-2.48-1.91-4.09-2.35c0.7-0.78,0.93-2.18,0.29-2.93c0.96,0.06,1.01,0.56,2,0.56   c1.53,0,2.51-0.99,2.51-2.55c0-1.16-0.91-2.41-2.01-2.63c-0.24-0.04-0.61-0.05-0.61,0.18c0,0.35,0.06,0.26,0.54,0.7   c0.56,0.51,0.69,1.14,0.69,1.76c0,0.63-0.45,0.96-1.12,0.96c-0.74,0-1.75-1.12-3.15-1.12c-0.7,0-1.25,0.62-1.44,1.27   c-1.45-0.57-2.81-0.81-2.81-1.74c0-0.94,0.87-2.07,1.64-4.29c1.58-4.52,4.04-8.74,4.04-10.44c0-0.84-0.5-0.8-0.5-1.58   c0-0.62,0.95-3.48,1.95-4.47c0.6-0.6,2.34-0.99,4.06,0.73c1.61,1.61,3.43,1.79,4.22,2.57c0.66,0.66,2.1,3.28,2.96,3.28   c0.31,0,0.62,0.08,0.62-0.16c0-0.29-0.58-0.46-1.23-1.25c-0.85-1.04-1.58-3.51-3.07-3.51c-1.72,0-2.81-3.51-4.29-3.51   c-2.53,0-3.56-1.87-3.56-3.03c0-1.02,0.75-1.49,1.29-1.49c0.47,0,0.49,0.31,0.49,0.78c0,0.8,0.08,0.84,0.61,1.36   c0.43,0.43,1.76,0.9,2.33,1.21c0.7,0.39,0.94,1.02,1.25,1.33c0.31,0.31,0.83,0.06,1.01,0.24c0.35,0.33,0.56,1.03,0.94,1.4   c0.7,0.7,1.64,0.62,2.42,1.4c0.93,0.94,0.62,2.65,1.95,3.98c0.55,0.55,1.05,0.96,1.56,1.41c0.51,0.46,0.75,1.42,1.17,1.77   c0.96,0.79,1.72,0.8,2.03,0.49c0.23-0.24-0.62-0.34-1.22-1.02c-0.37-0.41-0.36-0.99-0.84-1.56c-0.51-0.59-1.3-1.25-1.85-1.95   c-1.07-1.35-0.92-2.9-2.07-4.06c-0.86-0.86-1.88-0.94-2.58-1.64c-0.71-0.71-0.4-1.17-1.1-1.87c-0.71-0.7-4.56-1.56-3.28-2.84   c0.78-0.78,2.03,0.97,2.49,0.5c0.32-0.31,0.03-0.47,0.39-0.83c0.27-0.27,1.16,0.46,1.52,0.46c0.35,0,0.52-0.33,0.52-0.48   c0-1.34-3.52-2.26-4.38-2.26c-0.39,0-0.53-0.33-0.53-0.8c0-0.98-0.96-2.9-0.96-3.51c0-0.54,1.02-0.94,1.02-1.48   c0-0.47-0.43-0.41-0.78-0.23c-0.31,0.15-1.64,0.81-1.64,1.72c0,1.48,1.02,1.72,1.02,3.51c0,1.02-1.55,0.94-2.65,1.33   c-1.32,0.47-2.34,1.17-2.34,2.58c0,1.56,1.72,1.64,1.17,2.18c-0.47,0.47-2.89-0.7-2.89-2.65c0-2.5,2.57-2.97,2.57-3.36   c0-0.39-2.11-1.17-2.11-3.2c0-1.96,2.37-2.03,2.37-5.37c0.28,0,1.21,0.93,1.21,1.71c0,1.64-1.87,2.5-1.87,3.98   c0,1.33,1.55,2.26,2.26,2.26c0.31,0,0.62-0.08,0.62-0.62c0-0.78-1.17-0.95-1.17-2.34c0-2.11,4.92-3.2,4.92-5.15   c0-1.56-1.87-1.56-1.87-2.73c0-1.33,1.64-1.01,1.64-1.01s-0.16,0.31-0.16,1.01c0,1.01,1.95,1.4,1.95,2.73   c0,0.86-1.25,1.87-0.86,2.26c0.39,0.39,2.11-1.4,2.65-0.86c0.62,0.62-3.59,2.42-3.59,4.13c0,0.55,0.55,2.49,1.09,2.49   c0.31,0,0.52-0.16,0.51-0.78c0-0.47-0.2-0.7-0.2-1.72c0-1.25,3.82-2.2,3.82-4.21c0-1.64-3.98-3.26-3.98-4.52   c0-1.09,0.22-2.03,1.72-2.26c0.62-0.1,0.86,0,0.86,0.31c0,0.7-0.78,0.86-0.78,1.95c0,1.48,3.98,1.95,3.98,4.21   c0,0.78,0.57,1.02,1.48,1.24c2.34,0.55,6.69,1.18,6.86,1.18c0.17,0,0.34-0.25,0.34-0.47c0-0.27-0.14-0.54-0.96-0.71   c-1.94-0.43-6.08-1.11-6.08-1.47c0-0.47,1.35-1.22,4.37-2.5c3.51-1.48,8.03-3.2,11.94-3.2c4.62,0,15.76,4.45,15.76,5.12   c0,0.81,1.48,1.44,1.72,1.67c1.33,1.33,2.81,4.53,3.67,6.4c0.29,0.62,0.78,0.86,0.86,0.86c0.51-0.02,0.47-0.86,0.47-0.86   c0-1.56-3.12-6.01-3.12-6.47c0-0.33,0.31-0.65,0.31-1.09c0-0.47-0.19-0.78-0.86-1.09c-5.07-2.42-12.33-4.52-12.33-5.22   c0-0.48,2.73-0.47,2.73-1.8c0-0.74-5.85,1.09-9.21,1.09c-3.04,0-7.74,1.01-7.74-2.29c0-3.31,4.7-4.24,8.01-4.24   c9.38,0,17.57,3.13,22.62,8.32c4.18,4.29,7.51,16.23,7.51,21.13c0,5.19-1.43,10.03-1.74,13.59c-0.18,2.11,1.06,3.35,2.93,3.35   c2.03,0,1.79-0.78,3.59-0.78c0.99,0,1.64,0.62,1.64,1.56c0,2.11,0.62,3.43,2.34,3.43c0.86,0,2.11-0.78,2.11-2.26   c0-0.78-0.31-1.87-1.17-1.87c-0.86,0,0.55,2.58-1.01,2.58c-0.94,0-0.78-0.86-0.78-1.87c0-1.87-1.56-2.96-3.2-2.96   c-1.87,0-2.34,0.78-3.51,0.7c-0.7,0-1.41-0.62-1.37-1.79c0.08-2.52,1.71-6.28,1.71-13.66c0-5.84-3.46-17.46-7.55-21.83   c-5.33-5.7-14.08-9.02-24.11-9.02c-4.56,0-9.77,1.3-9.77,5.64c0,1.22,0.61,2.13,1.42,3c0.24,0.25,0.35,0.9-0.11,1.01   c-2.27,0.58-6.63,2.34-8.74,3.67c-0.7-0.7-3.51-1.95-3.51-2.26c0-0.47,0.63-1.09,0.63-2.26c0-1.17-0.55-2.58-1.72-2.58   c-0.16,0-0.39,0.17-0.39,0.31c0,0.21,0.25,0.48,0.25,0.7c0,0.14-0.11,0.18-0.41,0.23c-0.46,0.08-1.41,0.55-2.5,1.8   c-0.47-0.05-1.43-0.17-2.03,0.11c-0.76,0.35-1.32,1.12-1.32,2.15c0,1.25,1.78,1.64,1.78,2.73c0,0.7-1.87,1.37-1.87,1.37   c-0.39-0.9-1.24-3.48-4.6-3.17c-0.22,0.02-0.38,0.22-0.38,0.42c0,0.75,0.96,1.45,0.96,2.4c0,1.16-2.45,2.11-2.45,4.52   c0,1.49,0.78,2.26,1.64,3.04c-1.17,0.47-1.99,2.02-1.99,3.43c0,2.19,1.35,3.32,2.46,3.97c0.94,0.55,1.33,1.4,1.05,2.27   c-0.45,1.43-1.26,3.26-1.26,4.21c0,0.64,0.3,1,0.3,1.64c0,1.41-0.72,2.12-1.66,4.37c-1.68,4.01-1.71,5.07-3.92,9.44   c-0.39,0.77-0.17,1.95,0.41,2.36c0.62,0.44,2.81,1.61,3.64,1.61c0.17,0,0.5,0,0.73,0c1.09,0,1.33,1.56,0.46,2.36   c-0.31,0.29-0.57,0.71-0.57,1.07c0,0.94,0.73,1.33,0.73,1.87c0,0.47-0.25,0.78-0.25,1.33c0,2.5,2.65,1.95,2.65,2.89   c0,1.09-1.2,1.56-1.2,3.67c0,5.77,6.43,6.61,11.41,7.07c3.76,0.34,4.08,1.07,4.21,4.56c0.17,4.6,1.71,8.11,1.71,11.93   c0,1.09-0.45,2.42-1.07,3.12c-0.74,0.83-1.79,1-2.81,0.71c-22.8-6.53-38.61-27.06-38.61-50.99c0-29.27,23.73-53,53-53   c29.27,0,53,23.73,53,53C110.34,68.02,107.61,77.35,102.8,85.3z"></path>
	<path d="M102.37,68.55c0-2.18-2.55-2.58-2.55-2.58c-1.01-0.15-1.87,0.16-0.55,0.92c0.54,0.31,1.64,0.8,1.64,1.66   c0,1.09-0.93,1.25-2.11,1.72c-0.42,0.17-0.86,0.31-0.86,0.97s1.02,0.82,3.2,1.19c1.31,0.22,2.38,0.56,2.38,1.58   c0,0.88-0.52,1.54-0.2,1.54c0.7,0,1.54-0.61,1.54-1.54c0-2.11-1.7-2.65-4.51-3.12C100.36,70.89,102.37,70.58,102.37,68.55z"></path>
	<path d="M44.04,33.52c1.09,0,1.56-1.33,2.73-1.33c1.33,0,1.87,0.93,2.97,0.93c3.28,0,4.37-1.32,7.02-1.32c3.51,0,3.67,3.9,6.71,3.9   c0.94,0,3.75-0.31,4.6-0.31c2.65,0,3.12,2.34,5.38,2.34c1.02,0,2.26-0.62,2.26-1.32c0-0.23-0.78,0.07-2.34,0.07   c-2.11,0-1.94-2.34-5.3-2.34c-0.59,0-3.04,0.31-3.9,0.31c-2.82,0-2.58-4.37-7.41-4.37c-2.42,0-3.98,1.56-7.02,1.56   c-0.94,0-1.33-1.02-2.97-1.02c-1.09,0-1.79,1.48-2.73,1.48c-1.01,0-1.09-1.02-2.96-1.02c-1.01,0-2.49,1.09-2.49,2.03   c0,0.78,0.08,2.11,0.86,2.11c0.62,0,0.7-0.31,0.7-0.86c0-0.47-0.16-0.7-0.16-1.25c0-0.47,0.52-0.78,1.09-0.78   C41.93,32.35,42.01,33.52,44.04,33.52z"></path>
	<path d="M55.35,39.26c1.36,0,2.9,1.05,4.1,1.61c1.13,0.53,2.53,1.12,3.54,1.12c4.53,0,6.63,8.88,11.47,8.88   c0.25,0,0.62-0.1,0.62-0.42c0-0.47-0.78-0.86-1.95-1.4c-0.73-0.34-1.25-1.11-1.25-1.41c0-0.55,0.39-0.47,0.86-0.47   c0.93,0,1.4-0.08,1.4-0.62c0-0.31-0.35-0.5-1.4-0.78c-1.72-0.47-2.42-3.04-4.68-4.08c-0.12-0.05-0.82-0.37-0.82-0.68   c0-0.31,3.94-0.47,6.28-0.47c4.91,0,4.29,8.96,10.57,8.96c2.38,0,4.41,2.67,4.41,1.89c0-0.94-1.87-2.96-4.37-2.96   c-4.09,0-4.68-9.32-10.61-9.32c-2.81,0-8.35,0.78-10.53,0.78c-2.06,0-6.9-1.99-6.9-2.53c0-0.4,1.45-0.12,1.82-0.49   c0.21-0.21,0.09-0.68-0.42-1.04c-0.42-0.3-1.04-0.54-1.75-0.54c-1.42,0-2.68,1.21-3.73,2.03c-1.26,0.99-2.7,2.18-4.77,2.18   c-1.78,0-2.56-0.12-4.1-0.5c-0.32-0.08-0.82-0.44-1.11-0.15c-0.48,0.49-0.18,1,0.74,1.38c1.06,0.45,2.21,0.9,4.47,0.9   C50.18,41.13,52.41,39.26,55.35,39.26z"></path>
	<path d="M87.8,64.88c-0.78-1.79-1.62-4.09-2.58-5.85c-1.4-2.57-3.43-4.29-5.62-4.29c-0.44,0-1.56,0.08-1.56,0.62   c0,0.78,2.5-0.86,5.7,4.06c1.15,1.77,1.9,5.29,2.42,6.94c0.39,1.25,1.01,2.11,0.7,2.42c-0.54,0.55-1.32-0.23-1.87-1.4   c-0.66-1.42-2.03-3.28-2.88-3.28c-0.48,0-0.86-0.08-0.86,0.31c0,0.8,1.51,1.46,0.94,2.03c-0.43,0.43-1.09-0.55-3.43-1.79   c-1.42-0.76-2.89-1.02-3.9-1.17c-0.45-0.07-0.86,0.05-0.86,0.47c0,0.39,0.49,0.62,0.86,0.7c1.01,0.23,3.8,1.98,4.68,2.96   c3.97,4.44,10.52,7.17,16.23,8.27c1.54,0.29,2.03-0.55,2.03-0.78c0-0.39-0.24-0.39-1.25-0.78c-2.35-0.9-5.16-2.8-4.29-3.67   c0.54-0.55,2.81-0.08,3.35-0.63c0.27-0.27-0.34-1.19-1.33-2.18c-0.47-0.47-1.64-1.01-2.73-1.01C90.14,66.83,88.47,66.42,87.8,64.88   z"></path>
	<path d="M66.33,57.8c1.65,0.9,5.88,1,8,1.17c0.83,0.06,1.46,0.14,1.78,0.25c0.45,0.15,1.08,0.48,1.58,0.68   c0.67,0.26,1.17,0.2,1.17-0.31c0-0.78-1.15-1.67-2.41-1.99c-0.54-0.13-1.27-0.22-2.11-0.28c-1.96-0.16-5.75-0.24-7.27-1.18   c-1.18-0.73-2.04-1.82-2.51-2.59c-0.28-0.45-0.83-1-1.32-0.5C62.26,54.03,64.67,56.89,66.33,57.8z"></path>
	<path d="M73.68,55.64c1.25,0,2.93-0.66,2.93-1.21c0-0.41-0.32-0.49-0.62-0.49c-0.44,0-1.47,0.14-2.31,0.14   c-6.32,0-7.21-11.62-15.83-11.62c-0.26,0-0.79,0.01-0.96-0.26l-0.05-0.08l-0.05-0.1c-0.18-0.35-0.41-0.65-1.52-0.65   c-0.86,0-1.94,0.41-2.87,0.8c-0.46,0.19-1.71,0.77-2.2,0.77c-0.5,0-0.81-0.04-1-0.03c-0.29,0.01-0.44,0.14-0.44,0.45   c0,0.6,1.56,1.29,2.61,1.29c0.66,0,1.33-0.27,1.96-0.43c0.79-0.21,1.84-0.42,3.5-0.42C65.35,43.78,65.72,55.64,73.68,55.64z"></path>
	<path d="M101.69,76.58c-2.42,0-2.81,1.95-5.85,1.95c-4.45,0-5.38-1.56-10.53-1.56c-2.03,0-3.43,1.25-6.47,1.25   c-2.01,0-6.47-1.72-6.47-3.9c0-0.13,0.33-0.42,0.7-0.16c1.56,1.1,1.87,1.15,2.5,1.17c0.48,0.02,0.86-0.16,0.86-0.55   c0-0.24-1.68-1.27-2.65-1.95c-2.02-1.4-5.3-3.04-5.3-4.21c0-0.39,0.39-0.45,0.78-0.44c1.27,0.04,3.67,0.99,4.45,0.99   c0.31,0,0.63,0,0.63-0.55c0-0.52-2.41-1.56-4.84-2.13c-1.17-0.27-2.24-0.58-2.96-0.84c-0.57-0.2-0.78-0.38-0.78-0.92   c0-0.31,0.39-0.62,0.86-0.62c2,0,3.12,0,4.76,0c1.02,0,1.64,0.08,1.64-0.39c0-0.7-1.64-1.17-3.28-1.17c-3.67,0-6.52,0.11-8.74-2.11   c-2.34-2.34-2.89-7.64-4.84-9.59c-2.11-2.11-3.74-1.56-3.74-2.34c0-0.55,1.71-0.7,2.42-0.7c1.33,0,2.3,1.09,2.89,1.09   c0.47,0,0.47-0.54,0.47-0.63c0-0.94-2.17-1.95-3.35-1.95c-1.41,0-4.67,0.39-5.7,0.39c-1.79,0-2.26-1.4-3.04-1.4   c-0.47,0-0.58,0.15-0.55,0.55c0.07,0.92,1.87,2.42,3.59,3.35c1.26,0.69,4.96,1.9,5.77,2.65c1.01,0.93,0.47,1.48-0.16,1.48   c-0.7,0-1.09-0.31-1.95-0.31c-0.39,0-0.56,0.23-0.56,0.55c0,1.49,5.24,3.59,5.24,7.96c0,2.71-1.33,4.24-1.33,6.47   c0,1.87,0.98,2.55,1.01,2.58c0.62,0.38,0.94,0.15,0.94-0.39c0-0.39-0.7-0.71-0.7-2.19c0-1.72,1.17-4.21,1.15-4.28   c0.21-0.58,0.27-1.49,0.8-1.49c1.33,0,1.25,3.04,2.42,3.04c0.63,0,1.56-0.32,1.56,0.16c0,0.94-3.28,2.1-2.5,2.89   c0.55,0.55,2.58-1.25,3.04-1.25c0.55,0,0.8,0.53,0.24,1.09c-0.5,0.5-2.65,2.57-2.65,3.35c0,0.63,1.71,1.64,2.34,1.64   c0.78,0,1.09-0.78,1.87-0.78c2.56,0,5.91,4.57,8.19,5.93c1.76,1.05,3.27,1.4,4.99,1.4c1.79,0,3.43-0.72,4.99-0.72   c2.26,0,4.6,2.12,6.63,2.12c1.09,0,0.63-1.82,1.72-1.82c1.21,0,2.42,1.86,3.75,1.86c1.36,0,4.32-2.65,5.77-2.65   c1.37,0,1.72,0.98,1.72,2.3c0,0.47,1.41,0.08,1.41-1.49C104.81,77.83,103.79,76.58,101.69,76.58z"></path>
	<path d="M44.19,37.43c0.95,0,2.4,0.53,2.96,0.53c0.7,0,2.42-0.53,2.42-0.92c0-0.7-1.63-0.15-2.58-0.66   c-1.01-0.55-1.64-1.05-2.81-1.05c-0.63,0-1.48,0.06-1.87,0.45c-0.44,0.44-1.25,0.18-1.25,0.65c0,0.62,1,1.03,1.79,1.01   C43.53,37.41,43.26,37.43,44.19,37.43z"></path>
	<path d="M75.26,69.05c-0.9,0.9,3.17,3.31,3.17,3.85c0,1.42,0.93,2.15,2.34,2.15c0.39,0,0.76-0.18,0.76-0.53   C81.54,72.99,75.87,68.44,75.26,69.05z"></path>
	<path d="M49.73,54.74c-0.35-0.32-0.71,0.07-0.7,0.39c0,0.22,0.01,0.43,0.23,0.63c0.8,0.73,1.95,2.81,1.95,5.77   c0,1.56-1.64,4.52-1.64,6.47c0,3.36,2.73,4.14,3.27,3.59c0.47-0.47-2.03-1.33-2.03-3.59c0-2.18,1.64-4.83,1.64-6.47   c0-0.58,0-1.25-0.11-2.03c-0.06-0.47,0.33-0.57,0.55-0.31c0.66,0.77,0.96,1.47,0.96,2.34c0,2.18-1.09,3.35-1.09,4.29   c0,0.31-0.08,0.39,0.24,0.39c0.47,0,2.26-2.18,2.26-4.68C55.27,58.72,51.99,56.76,49.73,54.74z"></path>
	<path d="M41.54,54.07c-1.74-0.98-8.07-2.75-8.07-3.26c0-0.52,0.58-0.55,1.75-0.55c0.45,0,1.01,0.03,1.01-0.28   c0-0.38-2.23-1.33-3.43-1.33c-1.48,0-1.66,0.85-1.66,1.56c0,1.5,0.86,3.08,1.62,3.83c0.31,0.31,0.12,2.99,1.28,2.99   c0.71,0,1.34-0.42,1.34-1.82c0-0.47,4.01,0.31,4.01,0.78c0,0.25-0.43,0.42-0.43,0.61c0,0.33,0.03,0.41,0.63,0.41   c1.09,0,3.17-0.55,3.17-1.7C42.76,54.82,42.33,54.51,41.54,54.07z M33.49,52.81c0-0.49,0.8-0.25,1.73,0.05   c1.48,0.47,2.06,0.65,2.57,0.87c0.55,0.23,1.38,0.47,1.38,0.94C39.18,55.21,33.49,53.41,33.49,52.81z"></path>
	<path d="M33.43,57.86c-0.31,0.31-0.28,0.84-0.28,1.79c0,0.46,0.26,0.34,1.03-0.13c1.82-1.12,2.21-1.31,1.89-1.64   C35.81,57.63,33.76,57.52,33.43,57.86z"></path>
	<path d="M62.84,86.49c0-1.79,0.98-3.35,0.62-3.35c-0.94,0-2.03,1.72-2.03,3.2c0,2.18,0.83,2.94,1.56,3.66   c1.79,1.79,3.98,1.01,5.15,2.19c1.25,1.25,0.47,3.02,0.47,4.37c0,3.9,2.4,5.36,5.15,6.48c2.11,0.86,1.32,3.35,2.03,3.35   c1.25,0,1.95-1.09,1.95-2.26c0-1.03-0.67-2.11-2.03-2.65c-2.11-0.84-5.46-1.09-5.46-4.92c0-1.4,0.63-3.03,0.63-4.29   c0-1.79-1.13-2.5-3.75-2.5C64.38,89.76,62.84,88.53,62.84,86.49z"></path>
</g>
</svg>
